<svg xmlns="http://www.w3.org/2000/svg" width="10" height="10" viewBox="0 0 10 10">
    <defs>
        <linearGradient id="a" x1="66.814%" x2="98.343%" y1="-10.507%" y2="111.451%">
            <stop offset="0%" stop-color="#4E60D3"/>
            <stop offset="14.276%" stop-color="#913BAF"/>
            <stop offset="76.146%" stop-color="#D52D88"/>
            <stop offset="100%" stop-color="#F26D4F"/>
        </linearGradient>
    </defs>
    <path fill="url(#a)" fill-rule="nonzero" d="M5 .901c1.335 0 1.493.005 2.02.03 1.356.061 1.989.704 2.05 2.049.025.527.03.685.03 2.02 0 1.336-.006 1.494-.03 2.02-.062 1.345-.693 1.989-2.05 2.05-.527.025-.684.03-2.02.03-1.335 0-1.493-.005-2.02-.03C1.62 9.008.992 8.363.93 7.02.906 6.493.9 6.335.9 5s.006-1.493.03-2.02C.992 1.635 1.623.992 2.98.93 3.507.906 3.665.901 5 .901zM5 0C3.642 0 3.472.006 2.939.03 1.123.113.114 1.12.03 2.938.006 3.472 0 3.642 0 5c0 1.358.006 1.528.03 2.062.083 1.815 1.09 2.825 2.908 2.908.534.024.704.03 2.062.03 1.358 0 1.528-.006 2.062-.03 1.814-.083 2.825-1.09 2.908-2.908.024-.534.03-.704.03-2.062 0-1.358-.006-1.528-.03-2.061C9.888 1.125 8.88.114 7.062.03 6.528.006 6.358 0 5 0zm0 2.433a2.568 2.568 0 1 0 0 5.135 2.568 2.568 0 0 0 0-5.135zm0 4.234a1.666 1.666 0 1 1 0-3.333 1.666 1.666 0 0 1 0 3.333zM7.67 1.73a.6.6 0 1 0-.001 1.2.6.6 0 0 0 0-1.2z"/>
</svg>
