<svg xmlns="http://www.w3.org/2000/svg" width="145" height="31" viewBox="0 0 145 31">
    <g fill="none" fill-rule="evenodd">
        <g fill-rule="nonzero">
            <path fill="#17BF9E" d="M4.816 0L27 22.197 22.2 27l-8.23-8.235-8.177 8.203L0 21.172l8.203-8.208-8.166-8.16z"/>
            <path fill="#FF9E3F" d="M10.125 27H18l-3.938-4.5z"/>
        </g>
        <path fill="#212121" d="M32 11h13.222v3.322h-4.62v12.1h-4.026v-12.1H32V11zm19.411 3.388c1.936 0 3.425.572 4.466 1.716 1.042 1.144 1.562 2.713 1.562 4.708 0 .308-.007.543-.022.704h-8.272c.191.675.521 1.192.99 1.551.47.36 1.042.539 1.716.539.514 0 1.009-.103 1.485-.308a4.19 4.19 0 0 0 1.31-.902l2.045 2.046a6.033 6.033 0 0 1-2.233 1.573c-.872.36-1.859.539-2.959.539-1.276 0-2.39-.25-3.344-.748a5.201 5.201 0 0 1-2.189-2.112c-.506-.91-.759-1.965-.759-3.168 0-1.217.257-2.292.77-3.223a5.317 5.317 0 0 1 2.178-2.156c.939-.506 2.024-.759 3.256-.759zm2.222 5.038c0-.69-.201-1.243-.605-1.661-.403-.418-.935-.627-1.595-.627-.616 0-1.133.205-1.55.616-.419.41-.694.968-.826 1.672h4.576zm14.396-5.06c1.305 0 2.35.41 3.135 1.232.784.821 1.177 1.929 1.177 3.322v7.502h-3.894v-6.38c0-.675-.184-1.206-.55-1.595-.367-.389-.858-.583-1.474-.583-.646.015-1.177.227-1.595.638-.418.41-.664.953-.737 1.628v6.292h-3.916V14.52h3.916v1.936c.425-.69.971-1.21 1.639-1.562.667-.352 1.433-.528 2.299-.528zm15.451 11.44c-.44.25-.946.444-1.518.583a7.318 7.318 0 0 1-1.738.209c-1.173 0-2.123-.337-2.849-1.012s-1.089-1.606-1.089-2.794v-5.104h-1.65v-2.596h1.65v-3.3h3.894v3.3h3.08v2.596h-3.08v4.488c0 .836.345 1.254 1.034 1.254.425 0 .931-.132 1.518-.396l.748 2.772zM97.413 14.52v10.846c0 1.1-.271 2.064-.814 2.893-.542.829-1.301 1.467-2.277 1.914-.975.447-2.1.671-3.377.671-.997 0-1.958-.14-2.882-.418-.924-.279-1.738-.653-2.442-1.122l1.364-2.706c.543.367 1.13.653 1.76.858.631.205 1.269.308 1.914.308.88 0 1.577-.205 2.09-.616.514-.41.77-.968.77-1.672V24.2c-.792 1.041-1.921 1.562-3.388 1.562-.982 0-1.859-.238-2.629-.715s-1.371-1.151-1.804-2.024c-.432-.873-.649-1.874-.649-3.003 0-1.115.21-2.097.627-2.948.418-.85 1.009-1.51 1.771-1.98.763-.47 1.628-.704 2.596-.704.734 0 1.397.136 1.991.407a3.887 3.887 0 0 1 1.485 1.177V14.52h3.894zm-6.292 8.382c.719 0 1.298-.257 1.738-.77.44-.513.66-1.18.66-2.002 0-.836-.22-1.51-.66-2.024-.44-.513-1.019-.77-1.738-.77-.718 0-1.301.26-1.749.781-.447.52-.67 1.192-.67 2.013s.223 1.489.67 2.002c.448.513 1.03.77 1.75.77zm13.802-6.402c.41-.69.942-1.217 1.595-1.584.652-.367 1.397-.55 2.233-.55v3.586a5.865 5.865 0 0 0-.594-.022c-.924 0-1.672.216-2.244.649-.572.433-.902 1.023-.99 1.771v6.072h-3.916V14.52h3.916v1.98zm11.315-2.134c1.643 0 2.919.378 3.828 1.133.91.755 1.371 1.815 1.386 3.179v7.744h-3.85V25.08c-.792 1.012-1.987 1.518-3.586 1.518-1.261 0-2.255-.341-2.981-1.023-.726-.682-1.089-1.58-1.089-2.695 0-1.13.392-2.01 1.177-2.64.785-.63 1.91-.953 3.377-.968h3.102v-.132c0-.572-.194-1.012-.583-1.32-.389-.308-.95-.462-1.683-.462-.499 0-1.06.08-1.683.242a9.996 9.996 0 0 0-1.881.704l-1.078-2.64a15.47 15.47 0 0 1 2.783-.979 11.806 11.806 0 0 1 2.761-.319zm-1.012 9.57c.587 0 1.1-.143 1.54-.429.44-.286.719-.656.836-1.111v-1.034h-2.332c-1.1 0-1.65.41-1.65 1.232 0 .41.143.737.429.979.286.242.678.363 1.177.363zm25.483-9.57c1.291 0 2.325.41 3.102 1.232.778.821 1.166 1.929 1.166 3.322v7.502h-3.916v-6.38c0-.675-.176-1.206-.528-1.595-.352-.389-.828-.583-1.43-.583-.689.015-1.235.268-1.639.759-.403.491-.605 1.133-.605 1.925v5.874h-3.916v-6.38c0-.675-.176-1.206-.528-1.595-.352-.389-.828-.583-1.43-.583-.689.015-1.239.268-1.65.759-.41.491-.616 1.133-.616 1.925v5.874h-3.894V14.52h3.894v1.958c.411-.69.943-1.214 1.595-1.573.653-.36 1.412-.539 2.277-.539.968 0 1.797.235 2.486.704.69.47 1.181 1.122 1.474 1.958.382-.88.928-1.544 1.64-1.991.71-.447 1.55-.671 2.518-.671z"/>
    </g>
</svg>
